<?xml version="1.0" encoding="UTF-8" standalone="no"?>
<!-- Created with Inkscape (http://www.inkscape.org/) -->

<svg
   xmlns:dc="http://purl.org/dc/elements/1.1/"
   xmlns:cc="http://creativecommons.org/ns#"
   xmlns:rdf="http://www.w3.org/1999/02/22-rdf-syntax-ns#"
   xmlns:svg="http://www.w3.org/2000/svg"
   xmlns="http://www.w3.org/2000/svg"
   xmlns:xlink="http://www.w3.org/1999/xlink"
   xmlns:sodipodi="http://sodipodi.sourceforge.net/DTD/sodipodi-0.dtd"
   xmlns:inkscape="http://www.inkscape.org/namespaces/inkscape"
   width="501.18753"
   height="200"
   viewBox="0 0 132.60587 52.916665"
   version="1.1"
   id="svg8"
   inkscape:version="0.92.4 (5da689c313, 2019-01-14)"
   sodipodi:docname="ashwin.svg">
  <defs
     id="defs2" />
  <sodipodi:namedview
     id="base"
     pagecolor="#181818"
     bordercolor="#666666"
     borderopacity="1.0"
     inkscape:pageopacity="0"
     inkscape:pageshadow="2"
     inkscape:zoom="1.4"
     inkscape:cx="261.01278"
     inkscape:cy="56.307362"
     inkscape:document-units="mm"
     inkscape:current-layer="layer1"
     showgrid="false"
     fit-margin-top="0"
     fit-margin-left="0"
     fit-margin-right="0"
     fit-margin-bottom="0"
     inkscape:window-width="1280"
     inkscape:window-height="962"
     inkscape:window-x="-8"
     inkscape:window-y="-8"
     inkscape:window-maximized="1"
     units="px" />
  <metadata
     id="metadata5">
    <rdf:RDF>
      <cc:Work
         rdf:about="">
        <dc:format>image/svg+xml</dc:format>
        <dc:type
           rdf:resource="http://purl.org/dc/dcmitype/StillImage" />
        <dc:title></dc:title>
      </cc:Work>
    </rdf:RDF>
  </metadata>
  <g
     inkscape:label="Layer 1"
     inkscape:groupmode="layer"
     id="layer1"
     transform="translate(-39.386695,-43.959899)">
    <text
       xml:space="preserve"
       style="font-style:normal;font-variant:normal;font-weight:normal;font-stretch:normal;font-size:50.79999924px;line-height:1.25;font-family:Aharoni;-inkscape-font-specification:Aharoni;font-variant-ligatures:normal;font-variant-caps:normal;font-variant-numeric:normal;font-feature-settings:normal;text-align:start;letter-spacing:0px;word-spacing:0px;writing-mode:lr-tb;text-anchor:start;fill:#ffffff;fill-opacity:1;stroke:none;stroke-width:0.16500001;stroke-miterlimit:4;stroke-dasharray:none;stroke-dashoffset:0;stroke-opacity:1"
       x="65.297264"
       y="94.215775"
       id="text842"><tspan
         sodipodi:role="line"
         id="tspan840"
         x="65.297264"
         y="94.215775"
         style="font-style:normal;font-variant:normal;font-weight:normal;font-stretch:normal;font-size:8.46666622px;font-family:'Tw Cen MT';-inkscape-font-specification:'Tw Cen MT';fill:#ffffff;stroke:none;stroke-width:0.16500001;stroke-miterlimit:4;stroke-dasharray:none;stroke-dashoffset:0;stroke-opacity:1">Ashwin S Venkataraman</tspan></text>
    <circle
       style="opacity:0.98000004;fill:#ffdd55;fill-opacity:1;fill-rule:evenodd;stroke:none;stroke-width:0.47999999;stroke-linecap:round;stroke-linejoin:round;stroke-miterlimit:4;stroke-dasharray:none;stroke-dashoffset:0;stroke-opacity:1;paint-order:fill markers stroke"
       id="path844"
       cx="109.4314"
       cy="5.9034424"
       r="18.142857" />
    <path
       style="fill:none;stroke:#000000;stroke-width:0.26458332px;stroke-linecap:butt;stroke-linejoin:miter;stroke-opacity:1"
       d="m 100.19051,-1.1445336 c 0,0 3.74177,-2.271791 6.5481,0.334087"
       id="path846"
       inkscape:connector-curvature="0" />
    <path
       style="fill:none;stroke:#000000;stroke-width:0.26458332px;stroke-linecap:butt;stroke-linejoin:miter;stroke-opacity:1"
       d="m 119.64505,-1.3701166 c 0,0 -3.74178,-2.271791 -6.54811,0.334087"
       id="path846-4"
       inkscape:connector-curvature="0" />
    <path
       style="fill:none;stroke:#000000;stroke-width:0.26458332px;stroke-linecap:butt;stroke-linejoin:miter;stroke-opacity:1"
       d="m 102.86321,9.2121604 c 0,0 7.30405,12.5407056 15.25532,-0.221413"
       id="path863"
       inkscape:connector-curvature="0"
       sodipodi:nodetypes="cc" />
    <path
       style="fill:#ff80e5;stroke:none;stroke-width:0.26458332px;stroke-linecap:butt;stroke-linejoin:miter;stroke-opacity:1"
       d="m 123.22601,6.0437874 c 0,0 -3.77546,-7.562563 -1.10052,-6.849428 2.20649,0.588245 2.07887,2.267857 2.07887,2.267857 0,0 2.42343,-2.788965 2.9904,-1.655036 2.3554,1.934018 -3.96875,6.236607 -3.96875,6.236607 z"
       id="path865"
       inkscape:connector-curvature="0"
       sodipodi:nodetypes="csccc" />
    <path
       style="fill:#ff80e5;stroke:none;stroke-width:0.26458332px;stroke-linecap:butt;stroke-linejoin:miter;stroke-opacity:1"
       d="m 91.322027,8.5179174 c 0,0 -4.544444,-5.989685 -1.935737,-6.916245 2.106264,-0.748103 2.07887,2.267857 2.07887,2.267857 0,0 0.920039,-2.555104 2.9904,-1.655036 2.3554,1.934018 -3.133533,6.303424 -3.133533,6.303424 z"
       id="path865-4"
       inkscape:connector-curvature="0"
       sodipodi:nodetypes="csccc" />
    <path
       style="fill:#ff80e5;stroke:none;stroke-width:0.26458332px;stroke-linecap:butt;stroke-linejoin:miter;stroke-opacity:1"
       d="m 99.908061,23.084107 c 0,0 -3.77546,-7.562563 -1.10052,-6.849428 2.206489,0.588245 2.078869,2.267857 2.078869,2.267857 0,0 2.42343,-2.788965 2.9904,-1.655036 2.3554,1.934018 -3.968749,6.236607 -3.968749,6.236607 z"
       id="path865-49"
       inkscape:connector-curvature="0"
       sodipodi:nodetypes="csccc" />
    <path
       style="fill:#ff80e5;stroke:none;stroke-width:0.26458332px;stroke-linecap:butt;stroke-linejoin:miter;stroke-opacity:1"
       d="m 119.2851,22.148663 c 0,0 -3.77546,-7.562563 -1.10052,-6.849428 2.20649,0.588245 2.07887,2.267857 2.07887,2.267857 0,0 2.42343,-2.788965 2.9904,-1.655036 2.3554,1.934018 -3.96875,6.236607 -3.96875,6.236607 z"
       id="path865-47"
       inkscape:connector-curvature="0"
       sodipodi:nodetypes="csccc" />
    <path
       style="fill:#ff80e5;stroke:none;stroke-width:0.26458332px;stroke-linecap:butt;stroke-linejoin:miter;stroke-opacity:1"
       d="m 99.640791,-4.9791936 c 0,0 -3.77546,-7.5625634 -1.10052,-6.8494284 2.206489,0.588245 2.078869,2.2678574 2.078869,2.2678574 0,0 2.42343,-2.7889654 2.9904,-1.6550364 2.3554,1.9340184 -3.968749,6.2366074 -3.968749,6.2366074 z"
       id="path865-3"
       inkscape:connector-curvature="0"
       sodipodi:nodetypes="csccc" />
    <path
       style="fill:#ff80e5;stroke:none;stroke-width:0.26458332px;stroke-linecap:butt;stroke-linejoin:miter;stroke-opacity:1"
       d="m 119.67917,-4.5860006 c 0,0 -5.94882,-7.8460454 -3.27388,-7.1329104 2.20649,0.588245 3.1183,2.1261164 3.1183,2.1261164 0,0 3.08489,-3.2141884 3.65186,-2.0802594 3.9618,0.658348 -3.49628,7.0870534 -3.49628,7.0870534 z"
       id="path865-0"
       inkscape:connector-curvature="0"
       sodipodi:nodetypes="csccc" />
    <path
       style="fill:#f9f9f9;stroke:#000000;stroke-width:0.17775901px;stroke-linecap:butt;stroke-linejoin:miter;stroke-opacity:1"
       d="m 71.435118,54.706217 c 0,0 -1.526293,1.975201 -1.526293,2.603674 0,0.628473 -1.077382,3.591274 -1.975201,2.873019 -0.897818,-0.718255 0.08978,3.052583 -1.346726,3.321929 -1.43651,0.269346 0,2.962801 -1.43651,2.334328 -1.43651,-0.628473 1.256946,2.783238 -0.628474,1.705857 -1.885419,-1.077384 -1.885419,3.501491 -1.885419,3.501491 l 11.940989,5.117566 c 0,0 3.501495,-5.117566 3.321931,-7.451894 0.828835,-3.106497 1.287752,-5.439505 1.287752,-5.439505 -0.06416,-0.253396 -0.151528,-0.558475 -0.255341,-0.898359 -0.103814,-0.339884 -1.049375,-0.5876 -1.179236,-0.980211 -0.129868,-0.39261 0.555958,-0.930115 0.413675,-1.341693 -0.14229,-0.411577 -0.827008,-0.697227 -0.968088,-1.09401 -0.141088,-0.396783 0.705867,-1.412581 0.579614,-1.76081 -0.126253,-0.348228 -0.241683,-0.251084 -0.339477,-0.516997 -0.0978,-0.265913 -0.622357,-0.387 -0.678066,-0.536836 -0.0557,-0.149837 -0.08697,-0.233196 -0.08697,-0.233196 z"
       id="path824"
       inkscape:connector-curvature="0"
       sodipodi:nodetypes="csssscccccssssssscc" />
    <path
       style="fill:none;stroke:#000000;stroke-width:0.17775901px;stroke-linecap:butt;stroke-linejoin:miter;stroke-opacity:1"
       d="m 71.436267,57.452692 1.555394,0.444397"
       id="path826"
       inkscape:connector-curvature="0" />
    <path
       style="fill:none;stroke:#000000;stroke-width:0.17775901px;stroke-linecap:butt;stroke-linejoin:miter;stroke-opacity:1"
       d="m 74.086781,59.738165 1.555396,0.444397"
       id="path826-7"
       inkscape:connector-curvature="0" />
    <path
       style="fill:none;stroke:#000000;stroke-width:0.17775901px;stroke-linecap:butt;stroke-linejoin:miter;stroke-opacity:1"
       d="m 72.78533,61.991895 1.555395,0.444397"
       id="path826-3"
       inkscape:connector-curvature="0" />
    <path
       style="fill:none;stroke:#000000;stroke-width:0.17775901px;stroke-linecap:butt;stroke-linejoin:miter;stroke-opacity:1"
       d="m 68.849238,61.261813 1.555394,0.444398"
       id="path826-2"
       inkscape:connector-curvature="0" />
    <path
       style="fill:none;stroke:#000000;stroke-width:0.17775901px;stroke-linecap:butt;stroke-linejoin:miter;stroke-opacity:1"
       d="m 69.357121,64.65828 1.555393,0.444397"
       id="path826-1"
       inkscape:connector-curvature="0" />
    <path
       style="fill:none;stroke:#000000;stroke-width:0.17775901px;stroke-linecap:butt;stroke-linejoin:miter;stroke-opacity:1"
       d="m 72.975785,65.674046 1.555395,0.444397"
       id="path826-5"
       inkscape:connector-curvature="0" />
    <path
       style="fill:none;stroke:#000000;stroke-width:0.17775901px;stroke-linecap:butt;stroke-linejoin:miter;stroke-opacity:1"
       d="m 70.88077,64.055169 1.555396,0.444398"
       id="path826-4"
       inkscape:connector-curvature="0" />
    <path
       style="fill:none;stroke:#000000;stroke-width:0.17775901px;stroke-linecap:butt;stroke-linejoin:miter;stroke-opacity:1"
       d="m 74.68989,64.309111 1.555395,0.444397"
       id="path826-8"
       inkscape:connector-curvature="0" />
    <path
       style="fill:none;stroke:#000000;stroke-width:0.17775901px;stroke-linecap:butt;stroke-linejoin:miter;stroke-opacity:1"
       d="m 67.516046,62.944175 1.555393,0.444398"
       id="path826-6"
       inkscape:connector-curvature="0" />
    <path
       style="fill:none;stroke:#000000;stroke-width:0.17775901px;stroke-linecap:butt;stroke-linejoin:miter;stroke-opacity:1"
       d="m 67.865215,67.229437 1.555393,0.444397"
       id="path826-41"
       inkscape:connector-curvature="0" />
    <path
       style="fill:none;stroke:#000000;stroke-width:0.17775901px;stroke-linecap:butt;stroke-linejoin:miter;stroke-opacity:1"
       d="M 69.896746,70.848103 71.45214,71.2925"
       id="path826-53"
       inkscape:connector-curvature="0" />
    <path
       style="fill:none;stroke:#000000;stroke-width:0.17775901px;stroke-linecap:butt;stroke-linejoin:miter;stroke-opacity:1"
       d="m 73.388439,70.086279 1.555395,0.444397"
       id="path826-80"
       inkscape:connector-curvature="0" />
    <path
       style="fill:none;stroke:#000000;stroke-width:0.17775901px;stroke-linecap:butt;stroke-linejoin:miter;stroke-opacity:1"
       d="m 64.37352,70.149764 1.555393,0.444398"
       id="path826-9"
       inkscape:connector-curvature="0" />
    <path
       style="fill:none;stroke:#000000;stroke-width:0.17775901px;stroke-linecap:butt;stroke-linejoin:miter;stroke-opacity:1"
       d="m 66.97642,69.007028 1.555393,0.444397"
       id="path826-51"
       inkscape:connector-curvature="0" />
    <path
       style="fill:none;stroke:#000000;stroke-width:0.17775901px;stroke-linecap:butt;stroke-linejoin:miter;stroke-opacity:1"
       d="m 68.817495,72.435237 1.555393,0.444397"
       id="path826-82"
       inkscape:connector-curvature="0" />
    <path
       style="fill:none;stroke:#000000;stroke-width:0.17775901px;stroke-linecap:butt;stroke-linejoin:miter;stroke-opacity:1"
       d="m 70.912512,68.816572 1.555392,0.444397"
       id="path826-76"
       inkscape:connector-curvature="0" />
    <path
       style="fill:none;stroke:#000000;stroke-width:0.17775901px;stroke-linecap:butt;stroke-linejoin:miter;stroke-opacity:1"
       d="m 71.864795,73.641459 1.555388,0.444397"
       id="path826-60"
       inkscape:connector-curvature="0" />
    <path
       style="fill:none;stroke:#000000;stroke-width:0.17775901px;stroke-linecap:butt;stroke-linejoin:miter;stroke-opacity:1"
       d="m 70.5316,67.102466 1.555394,0.444398"
       id="path826-94"
       inkscape:connector-curvature="0" />
    <path
       style="fill:none;stroke:#000000;stroke-width:0.17775901px;stroke-linecap:butt;stroke-linejoin:miter;stroke-opacity:1"
       d="M 74.785117,68.245203 76.340513,68.6896"
       id="path826-36"
       inkscape:connector-curvature="0" />
    <path
       style="fill:none;stroke:#000000;stroke-width:0.17775901px;stroke-linecap:butt;stroke-linejoin:miter;stroke-opacity:1"
       d="m 75.48346,62.912433 1.555389,0.444397"
       id="path826-28"
       inkscape:connector-curvature="0" />
    <path
       style="fill:none;stroke:#000000;stroke-width:0.17775901px;stroke-linecap:butt;stroke-linejoin:miter;stroke-opacity:1"
       d="m 71.102968,59.357253 1.555397,0.444397"
       id="path826-32"
       inkscape:connector-curvature="0" />
    <path
       style="fill:none;stroke:#000000;stroke-width:0.17775901px;stroke-linecap:butt;stroke-linejoin:miter;stroke-opacity:1"
       d="m 75.356488,57.135265 1.555395,0.444397"
       id="path826-327"
       inkscape:connector-curvature="0" />
    <path
       style="fill:none;stroke:#000000;stroke-width:0.17775901px;stroke-linecap:butt;stroke-linejoin:miter;stroke-opacity:1"
       d="m 71.610852,56.309955 1.555394,0.444397"
       id="path826-536"
       inkscape:connector-curvature="0" />
    <path
       style="fill:#ffffff;fill-opacity:1;stroke:#000000;stroke-width:0.17775901px;stroke-linecap:butt;stroke-linejoin:miter;stroke-opacity:1"
       d="m 81.276497,59.833393 9.618033,2.634642 c 0,0 1.061005,1.558062 -0.531846,1.984863 -9.340131,-2.619717 -9.625813,-2.651459 -9.625813,-2.651459 0,0 0.95228,-0.761825 0.539626,-1.968046 z"
       id="path969"
       inkscape:connector-curvature="0" />
    <path
       style="fill:#ffffff;fill-opacity:1;stroke:#000000;stroke-width:0.17775901px;stroke-linecap:butt;stroke-linejoin:miter;stroke-opacity:1"
       d="m 81.276497,59.833393 c 0,0 -1.895946,0.263768 -0.539626,1.968046"
       id="path971"
       inkscape:connector-curvature="0" />
    <path
       style="fill:#ffff00;stroke:#000000;stroke-width:0.17775901px;stroke-linecap:butt;stroke-linejoin:miter;stroke-opacity:1"
       d="m 78.513139,57.546446 c 0,0 0.05852,3.292675 0.709428,3.449794 0.650917,0.157118 2.258493,-0.827409 1.356024,-1.514973 -0.736146,-0.560846 -2.065452,-1.934821 -2.065452,-1.934821 z"
       id="path975"
       inkscape:connector-curvature="0"
       sodipodi:nodetypes="ccsc" />
    <path
       style="fill:#ff7f2a;stroke:#000000;stroke-width:0.04366993;stroke-linecap:butt;stroke-linejoin:miter;stroke-miterlimit:4;stroke-dasharray:none;stroke-opacity:1"
       d="m 79.042774,58.790574 c 0.09657,0.378683 0.251391,0.654498 0.200465,0.903208 -0.153221,0.747547 0.558969,1.232592 0.640934,1.130598 0.157118,0.05611 -0.269349,0.05611 0,0 0.269343,-0.05611 0.698866,-0.3318 0.620307,-0.466473 -0.006,-0.42147 -0.113696,-0.801728 -0.55577,-0.967232 0,0 -0.394514,-0.0808 -0.529225,-0.305255 -0.134672,-0.224454 -0.57508,-0.874148 -0.57508,-0.874148 z"
       id="path977"
       inkscape:connector-curvature="0"
       sodipodi:nodetypes="csccccccc" />
    <path
       style="fill:none;stroke:#000000;stroke-width:0.17775901px;stroke-linecap:butt;stroke-linejoin:miter;stroke-opacity:1"
       d="m 80.825024,60.688811 c 0,0 -0.416953,-0.160599 -0.601482,-0.283346 -0.147886,-0.09837 -0.395744,-0.356817 -0.395744,-0.356817"
       id="path973"
       inkscape:connector-curvature="0"
       sodipodi:nodetypes="cac" />
    <path
       style="fill:#666666;stroke:#ffffff;stroke-width:0.11011756px;stroke-linecap:butt;stroke-linejoin:miter;stroke-opacity:1"
       d="m 76.794443,75.803395 c 0,0 1.150002,-1.13781 3.002778,-1.985116 1.852781,-0.847306 8.369443,1.839864 9.072213,1.791447 0.702784,-0.04842 -12.074991,0.193669 -12.074991,0.193669 z"
       id="path979"
       inkscape:connector-curvature="0" />
    <path
       style="fill:#ffffff;stroke:#ffffff;stroke-width:0.76499999;stroke-linecap:butt;stroke-linejoin:miter;stroke-miterlimit:4;stroke-dasharray:none;stroke-opacity:1"
       d="M 106.45651,59.267935 V 75.898887"
       id="path981"
       inkscape:connector-curvature="0" />
    <path
       style="fill:#ffffff;stroke:#ffffff;stroke-width:0.76499999;stroke-linecap:butt;stroke-linejoin:miter;stroke-miterlimit:4;stroke-dasharray:none;stroke-opacity:1"
       d="M 97.385077,67.299929 H 115.14996"
       id="path983"
       inkscape:connector-curvature="0" />
    <path
       style="fill:#ffcc00;stroke:#ffffff;stroke-width:0.26458332px;stroke-linecap:butt;stroke-linejoin:miter;stroke-opacity:1"
       d="m 124.95629,55.583424 c 0,0 0,10.289876 8.95353,11.893493 0.88351,0.158241 1.69676,0.157731 2.445,0.02826 6.83447,-1.182595 8.24578,-13.124465 8.24578,-13.124465 0.021,-0.202609 -5.96678,2.175903 -19.64431,1.202713 z"
       id="path1072"
       inkscape:connector-curvature="0"
       sodipodi:nodetypes="cssccc" />
    <path
       style="fill:#000000;fill-opacity:1;stroke:#ffffff;stroke-width:0.26458332px;stroke-linecap:butt;stroke-linejoin:miter;stroke-opacity:1"
       d="m 124.95629,55.583424 c -0.0306,0.09782 5.88636,-2.853652 19.64431,-1.202713"
       id="path1074"
       inkscape:connector-curvature="0"
       sodipodi:nodetypes="cc" />
    <path
       style="fill:none;stroke:#000000;stroke-width:0.26458332px;stroke-linecap:butt;stroke-linejoin:miter;stroke-opacity:1"
       d="m 134.10428,67.51254 c 0,0 0.24497,2.870607 -0.1712,4.213109 -0.25239,0.814156 -1.15848,1.562364 -1.3596,2.165738"
       id="path1076"
       inkscape:connector-curvature="0"
       sodipodi:nodetypes="cac" />
    <path
       style="fill:none;stroke:#000000;stroke-width:0.26458332px;stroke-linecap:butt;stroke-linejoin:miter;stroke-opacity:1"
       d="m 137.12343,67.341787 c 0,0 -0.19194,3.317216 0.3957,4.817462 0.25664,0.655212 1.15314,1.214618 1.30214,1.661611"
       id="path1076-3"
       inkscape:connector-curvature="0"
       sodipodi:nodetypes="cac" />
    <path
       style="fill:#a05a2c;stroke:#ffffff;stroke-width:0.26458332px;stroke-linecap:butt;stroke-linejoin:miter;stroke-opacity:1"
       d="m 126.71012,73.914513 h 18.09561 v 5.291666 h -18.00112 z"
       id="path1093"
       inkscape:connector-curvature="0" />
    <path
       style="opacity:0.98000004;fill:#ffd42a;fill-opacity:1;fill-rule:evenodd;stroke:#ffffff;stroke-width:0.13660714;stroke-linecap:round;stroke-linejoin:round;stroke-miterlimit:4;stroke-dasharray:none;stroke-dashoffset:0;stroke-opacity:1;paint-order:fill markers stroke"
       d="m 132.8554,73.662497 c 0.0248,-0.04548 0.23914,-0.337817 0.47633,-0.649647 0.49799,-0.654704 0.73042,-1.09243 0.82789,-1.559153 0.12674,-0.606853 0.17989,-1.519745 0.15434,-2.651003 l -0.0247,-1.091851 0.65118,0.02342 c 0.66248,0.02383 1.33641,-0.03393 1.78896,-0.153312 l 0.243,-0.0641 -0.0297,0.574639 c -0.0345,0.668696 0.0448,2.233661 0.14846,2.928055 0.16626,1.114102 0.32306,1.443379 1.05374,2.212848 0.23804,0.250677 0.4328,0.468603 0.4328,0.484283 0,0.01569 -1.29768,0.02851 -2.88373,0.02851 -2.73209,0 -2.88136,-0.0043 -2.83866,-0.08268 z"
       id="path1095"
       inkscape:connector-curvature="0" />
    <path
       style="fill:none;stroke:#f7f7f7;stroke-width:0.465;stroke-linecap:butt;stroke-linejoin:miter;stroke-opacity:1;stroke-miterlimit:4;stroke-dasharray:none"
       d="m 144.34955,56.18478 c 0,0 2.12194,-3.0736 4.05965,-1.202713 1.9377,1.870887 -6.41448,11.358955 -7.55037,9.888973"
       id="path1097"
       inkscape:connector-curvature="0"
       sodipodi:nodetypes="ccc" />
    <path
       style="fill:none;stroke:#f7f7f7;stroke-width:0.465;stroke-linecap:butt;stroke-linejoin:miter;stroke-opacity:1;stroke-miterlimit:4;stroke-dasharray:none"
       d="m 125.02311,57.320675 c 0,0 -4.00904,-4.476764 -4.47676,-1.536799 -0.46772,2.939964 6.48128,9.020346 8.01808,9.153981"
       id="path1099"
       inkscape:connector-curvature="0" />
    <path
       style="fill:none;stroke:none;stroke-width:0.26499999;stroke-linecap:butt;stroke-linejoin:miter;stroke-miterlimit:4;stroke-dasharray:none;stroke-opacity:1"
       d="m 128.77079,61.241023 c 0,0 2.49496,0.97997 12.96621,0.372863"
       id="path1101"
       inkscape:connector-curvature="0"
       sodipodi:nodetypes="cc" />
    <text
       xml:space="preserve"
       style="font-style:normal;font-variant:normal;font-weight:normal;font-stretch:normal;font-size:50.79999924px;line-height:1.25;font-family:Aharoni;-inkscape-font-specification:Aharoni;font-variant-ligatures:normal;font-variant-caps:normal;font-variant-numeric:normal;font-feature-settings:normal;text-align:start;letter-spacing:0px;word-spacing:0px;writing-mode:lr-tb;text-anchor:start;fill:#000000;fill-opacity:1;stroke:none;stroke-width:0.26458332"
       id="text1105"
       transform="translate(0.57788799)"><textPath
         xlink:href="#path1101"
         id="textPath1107"><tspan
   style="font-style:normal;font-variant:normal;font-weight:normal;font-stretch:normal;font-size:3.17499995px;font-family:'Comic Marker Deluxe';-inkscape-font-specification:'Comic Marker Deluxe';stroke-width:0.26458332"
   id="tspan1103">victory!</tspan></textPath></text>
  </g>
</svg>
